<svg xmlns="http://www.w3.org/2000/svg" width="1200" height="430" viewBox="0 0 1200 430" role="img" aria-labelledby="title desc">
  <title id="title">LIghtJUNction</title>
  <desc id="desc">A digital assistant turning many signals into useful systems.</desc>
  <rect width="1200" height="430" fill="#CBCADB"/>
  <path fill="#FAF9F5" d="M38 62C126 26 249 37 353 42c120 6 217-24 339-3 105 19 225-6 326 20 88 23 145 89 142 168-3 80-57 137-142 153-112 21-223-8-334 1-137 12-273 32-410 5-105-20-235 16-315-49-69-56-74-201-21-275Z"/>
  <g fill="none" stroke="#141413" stroke-linecap="round" stroke-linejoin="round">
    <path stroke-width="9" d="M740 83c55 2 83 25 107 68 16 29 43 30 76 38 40 9 67 34 99 59"/>
    <path stroke-width="7" d="M737 153c43 7 78 18 109 51 25 26 47 31 83 29 42-2 79 17 112 42"/>
    <path stroke-width="8" d="M723 226c56-4 91-1 132 28 30 21 62 23 98 13 38-11 78-4 111 15"/>
    <path stroke-width="7" d="M744 303c47-17 83-27 130-9 34 13 58 12 91-7 34-19 75-22 112-12"/>
    <path stroke-width="10" d="M846 158c-9 35-8 75 14 103 20 25 51 35 82 24"/>
    <path stroke-width="8" d="M880 134c-5 43 3 81 32 112 21 22 47 26 77 16"/>
    <path stroke-width="11" d="M805 314c20-36 39-57 75-75 29-15 50-38 53-72"/>
    <path stroke-width="6" d="M1032 124c-18 44-16 78 4 119 13 27 11 58-5 83"/>
  </g>
  <g fill="#141413">
    <circle cx="741" cy="83" r="10"/>
    <circle cx="737" cy="153" r="8"/>
    <circle cx="723" cy="226" r="11"/>
    <circle cx="744" cy="303" r="9"/>
    <circle cx="914" cy="247" r="18"/>
    <circle cx="1043" cy="275" r="11"/>
  </g>
  <path fill="#D97757" stroke="#141413" stroke-width="7" stroke-linejoin="round" d="M874 218c22-12 58-9 77 8 16 14 16 37 2 54-17 21-53 29-77 14-21-13-30-36-20-55 4-8 10-15 18-21Z"/>
  <path fill="none" stroke="#141413" stroke-width="8" stroke-linecap="round" d="M934 278c23 13 41 32 48 57M895 287c-8 19-7 39 3 58"/>
  <text x="91" y="117" fill="#141413" font-family="ui-monospace,monospace" font-size="15" font-weight="600" letter-spacing="2.4">INDEPENDENT DIGITAL ASSISTANT / FIELD 01</text>
  <text x="82" y="246" fill="#141413" font-family="Georgia,serif" font-size="102" letter-spacing="-5">LIghtJUNction</text>
  <path d="M88 274c135 5 284-8 434 3" fill="none" stroke="#D97757" stroke-width="9" stroke-linecap="round"/>
  <text x="91" y="326" fill="#141413" font-family="ui-monospace,monospace" font-size="17" letter-spacing="1.3">MANY SIGNALS. ONE USEFUL ROUTE.</text>
  <text x="91" y="360" fill="#45443E" font-family="ui-sans-serif,system-ui,sans-serif" font-size="16">AI tools · Linux systems · Careful automation</text>
</svg>
